Coordinates
version=1
nRows=29
nColumns=24
inDegrees=yes

Units are S.I. units (second, meters, Newtons, ...)
Angles are in degrees.

endheader
time	pelvis_tilt	pelvis_list	pelvis_rotation	pelvis_tx	pelvis_ty	pelvis_tz	hip_flexion_r	hip_adduction_r	hip_rotation_r	knee_angle_r	ankle_angle_r	subtalar_angle_r	mtp_angle_r	hip_flexion_l	hip_adduction_l	hip_rotation_l	knee_angle_l	ankle_angle_l	subtalar_angle_l	mtp_angle_l	lumbar_extension	lumbar_bending	lumbar_rotation
      0.87566667	     -4.54733647	     -3.80137240	      7.81792332	     -0.42426702	      1.01959755	      0.28059309	     17.52642666	      9.45430986	     -4.98396516	    -18.92718662	      3.42762347	     -9.99684489	      8.53534851	     16.93629020	     -5.61310710	      2.33272402	    -65.75169721	     -8.04751630	      5.12819573	      7.91280081	      3.60231518	      0.83431420	     -4.59548381
      0.87983333	     -4.52382333	     -3.81172042	      7.78784166	     -0.41946366	      1.02031101	      0.28066799	     17.04535253	      9.50732252	     -5.06730386	    -18.61174837	      3.59887210	     -9.68097681	      8.55940655	     17.60407597	     -5.60447014	      2.35654653	    -65.82450769	     -7.03071584	      4.80104860	      7.83791703	      3.49430059	      0.89108199	     -4.40167273
      0.88400000	     -4.51510479	     -3.76662290	      7.73108158	     -0.41465785	      1.02103423	      0.28078012	     16.56936986	      9.51410632	     -5.07446029	    -18.29504942	      3.69961713	     -9.53397968	      8.57029547	     18.24864210	     -5.52843073	      2.34817233	    -65.80235193	     -6.12648297	      4.30064376	      7.81046072	      3.41168452	      0.87055424	     -4.31482061
      0.88816667	     -4.45136683	     -3.75690572	      7.65937962	     -0.40986267	      1.02179625	      0.28089641	     16.04041327	      9.56219515	     -5.11332158	    -17.97852190	      3.87105302	     -9.21416487	      8.60054882	     18.83308795	     -5.50665406	      2.32494469	    -65.74691740	     -5.25949358	      3.82225178	      7.67322404	      3.24119916	      0.91762123	     -4.05629385
      0.89233333	     -4.43841322	     -3.70021916	      7.56698263	     -0.40504062	      1.02249440	      0.28104664	     15.55445820	      9.56617821	     -5.08012052	    -17.65815165	      3.96325587	     -9.07406979	      8.61224527	     19.43566741	     -5.42294823	      2.28069015	    -65.60922486	     -4.45031753	      3.29148996	      7.62767264	      3.16760803	      0.88474817	     -3.96782677
      0.89650000	     -4.35244095	     -3.65019343	      7.45611924	     -0.40024411	      1.02327048	      0.28121723	     14.99551027	      9.58623561	     -5.05636419	    -17.34861354	      4.14112357	     -8.76634273	      8.64918284	     19.94757807	     -5.36396550	      2.21441477	    -65.42018740	     -3.75117738	      2.68723607	      7.40979520	      2.97428056	      0.88204650	     -3.63292483
      0.90066667	     -4.33803437	     -3.59437651	      7.32794123	     -0.39547133	      1.02390279	      0.28140444	     14.52410848	      9.59256890	     -5.00978810	    -17.05827596	      4.25137237	     -8.56472785	      9.02103109	     20.52581029	     -5.28488367	      2.14139942	    -65.19359801	     -2.97731121	      2.13465513	      4.38978622	      2.87144398	      0.86488822	     -3.41171497
      0.90483333	     -4.30752609	     -3.53766811	      7.17845911	     -0.39067518	      1.02454146	      0.28164638	     14.02366643	      9.61252794	     -4.90015142	    -16.74793345	      4.34083287	     -8.42679921	      9.02460134	     21.06311797	     -5.22286526	      2.03972790	    -64.89908677	     -2.31314748	      1.57980748	      4.39149388	      2.76153545	      0.85233314	     -3.31592113
      0.90900000	     -4.21742344	     -3.46923308	      7.01380877	     -0.38590808	      1.02526029	      0.28189849	     13.45733384	      9.62748393	     -4.77495609	    -16.43643852	      4.47760879	     -8.20554095	      9.03035462	     21.51103095	     -5.15171209	      1.93810716	    -64.52928752	     -1.79988046	      0.90674265	      4.34944272	      2.54605597	      0.82104166	     -2.97553463
      0.91316667	     -4.18161466	     -3.39681881	      6.82735221	     -0.38115083	      1.02585704	      0.28218553	     12.96023456	      9.63298159	     -4.63241694	    -16.15011828	      4.60090109	     -8.02498658	      9.03558588	     22.00160312	     -5.07587567	      1.81674915	    -64.11403595	     -1.27480558	      0.28265709	      4.29343992	      2.41000422	      0.78519098	     -2.70922483
      0.91733333	     -4.11965562	     -3.31992808	      6.63148804	     -0.37639254	      1.02648737	      0.28248474	     12.43093085	      9.63696942	     -4.47428834	    -15.85591184	      4.71076725	     -7.84887266	      9.03969527	     22.44136909	     -5.00043835	      1.69246461	    -63.63505546	     -0.79372316	     -0.34009202	      4.21989691	      2.24042494	      0.74905077	     -2.43530037
      0.92150000	     -4.05697999	     -3.22621442	      6.41754488	     -0.37166025	      1.02708653	      0.28281216	     11.90932454	      9.62147208	     -4.30888531	    -15.58269580	      4.81287366	     -7.66588018	      9.04263600	     22.85635467	     -4.91100152	      1.55504927	    -63.09446301	     -0.32881761	     -0.94215610	      4.07898011	      2.06605070	      0.69614889	     -2.09288805
      0.92566667	     -4.01556841	     -3.14059723	      6.18857311	     -0.36694932	      1.02761158	      0.28317573	     11.41036070	      9.61789431	     -4.08751885	    -15.30629875	      4.94390638	     -7.52317029	      9.04613931	     23.28143101	     -4.83292293	      1.41261442	    -62.50586573	      0.06421516	     -1.56370036	      3.99523566	      1.90214513	      0.64889068	     -1.86718911
      0.92983333	     -3.96733137	     -3.06037234	      5.95464336	     -0.36222053	      1.02813061	      0.28354274	     10.90260525	      9.61536362	     -3.88472845	    -15.02571192	      5.05020202	     -7.36979870	      9.04737467	     23.67690674	     -4.76443576	      1.27030494	    -61.85569594	      0.44386326	     -2.15204321	      3.89488340	      1.75508141	      0.59906677	     -1.56575667
      0.93400000	     -3.93170086	     -2.96659737	      5.70425675	     -0.35754069	      1.02859920	      0.28392584	     10.41969132	      9.59627833	     -3.64743938	    -14.77008957	      5.16182243	     -7.22314033	      9.04829188	     24.06398109	     -4.67905022	      1.12756209	    -61.14605665	      0.80804105	     -2.71321953	      3.80312385	      1.58915500	      0.55293224	     -1.28596485
      0.93816667	     -3.88225540	     -2.87091680	      5.44715133	     -0.35284433	      1.02906916	      0.28433459	      9.91871325	      9.57412717	     -3.41374868	    -14.50927104	      5.27115629	     -7.07514749	      9.04793780	     24.41161047	     -4.60003769	      0.97789240	    -60.37513084	      1.14154739	     -3.25622324	      3.71111844	      1.42531821	      0.49141262	     -0.99289769
      0.94233333	     -3.85724278	     -2.78336481	      5.18512227	     -0.34814850	      1.02946445	      0.28474318	      9.44845060	      9.55127019	     -3.20729066	    -14.25002602	      5.36619418	     -6.90608176	      9.03804916	     24.76821715	     -4.52941615	      0.82832987	    -59.55054793	      1.46094795	     -3.77417770	      3.48264777	      1.31492163	      0.42301812	     -0.53977971
      0.94650000	     -3.83151003	     -2.68381438	      4.90699846	     -0.34349060	      1.02983843	      0.28517878	      8.98230752	      9.51888559	     -2.92925966	    -14.00866617	      5.50008209	     -6.77914049	      9.03713079	     25.09788449	     -4.44991325	      0.67339763	    -58.65953141	      1.74599891	     -4.25456154	      3.40270379	      1.15219897	      0.35999229	     -0.36200458
      0.95066667	     -3.79925868	     -2.59420432	      4.64546911	     -0.33879621	      1.03018836	      0.28560070	      8.49833227	      9.48998111	     -2.69777056	    -13.73688718	      5.61789474	     -6.63121963	      9.03164284	     25.40145509	     -4.37737848	      0.53965279	    -57.71043164	      1.97185061	     -4.74148391	      3.28255574	      1.02807876	      0.28146454	     -0.00550571
      0.95483333	     -3.78230123	     -2.50097028	      4.36940433	     -0.33412083	      1.03049107	      0.28602937	      8.04157956	      9.45201883	     -2.44983513	    -13.48967540	      5.73525926	     -6.47922437	      9.02442011	     25.69540223	     -4.30284023	      0.40216960	    -56.69917333	      2.20676117	     -5.17477024	      3.15800879	      0.90609361	      0.21105850	      0.32085787
      0.95900000	     -3.74585504	     -2.40898831	      4.09303424	     -0.32945405	      1.03079128	      0.28646269	      7.56413970	      9.41279387	     -2.20610981	    -13.23958306	      5.85320806	     -6.32827896	      9.01591232	     25.94538523	     -4.23290946	      0.26723434	    -55.62768600	      2.42021366	     -5.58104969	      3.03568392	      0.75736223	      0.14482087	      0.62883098
      0.96316667	     -3.74679708	     -2.32754488	      3.81309116	     -0.32478766	      1.03099469	      0.28687898	      7.13670355	      9.37463449	     -1.97689203	    -13.00542734	      5.95421001	     -6.16395330	      8.99756593	     26.21553509	     -4.16866135	      0.14322221	    -54.50276597	      2.62441616	     -5.97413557	      2.84352335	      0.65540327	      0.09503819	      1.00027828
      0.96733333	     -3.77314701	     -2.24425323	      3.52564914	     -0.32012483	      1.03110900	      0.28732334	      6.73979021	      9.33507103	     -1.70504059	    -12.78227429	      6.09374301	     -6.03646387	      8.99324710	     26.48985677	     -4.10873551	      0.01298907	    -53.32000534	      2.80237600	     -6.29396402	      2.76653448	      0.56596712	      0.03150499	      1.17448677
      0.97150000	     -3.76072301	     -2.16832107	      3.26976106	     -0.31541290	      1.03127028	      0.28770920	      6.28286811	      9.29541916	     -1.49422036	    -12.51501265	      6.22338818	     -5.88572215	      8.98150046	     26.69531323	     -4.04341243	     -0.07972790	    -52.06365677	      2.88812786	     -6.66372174	      2.64192068	      0.47194883	     -0.02803815	      1.53199199
      0.97566667	     -3.76356795	     -2.10210437	      2.99971501	     -0.31072408	      1.03136685	      0.28808711	      5.85615763	      9.25953977	     -1.27389097	    -12.27353108	      6.32552402	     -5.70879618	      8.95844254	     26.89521871	     -3.98882624	     -0.17151650	    -50.75736209	      3.00493348	     -6.99444453	      2.44646933	      0.36995279	     -0.06723654	      1.88976060
      0.97983333	     -3.79114334	     -2.03011925	      2.72147612	     -0.30602338	      1.03137817	      0.28849704	      5.46111186	      9.21827850	     -1.02283352	    -12.04849093	      6.46804123	     -5.58636353	      8.95163064	     27.09378402	     -3.93869382	     -0.28210113	    -49.38765346	      3.08518656	     -7.25338323	      2.36180103	      0.29848098	     -0.11930160	      2.05961067
      0.98400000	     -3.80614848	     -1.98774345	      2.48253863	     -0.30127694	      1.03136994	      0.28882273	      5.03600005	      9.19897149	     -0.83446467	    -11.77984532	      6.59532751	     -5.44308670	      8.93530770	     27.26251579	     -3.89665015	     -0.33424001	    -47.96351084	      3.07998953	     -7.58566202	      2.22035004	      0.24284053	     -0.13620017	      2.39972401
      0.98816667	     -3.85519011	     -1.93437896	      2.20940700	     -0.29654301	      1.03126713	      0.28919650	      4.66676490	      9.16730714	     -0.59608063	    -11.55912394	      6.71414344	     -5.30629044	      8.92564665	     27.43500489	     -3.86152571	     -0.42693407	    -46.47861964	      3.10499967	     -7.82991689	      2.12498909	      0.19665498	     -0.17178009	      2.59935968
      0.99233333	     -3.89060538	     -1.88512890	      1.95861479	     -0.29176423	      1.03114920	      0.28953043	      4.27098528	      9.13523995	     -0.38839673	    -11.31325051	      6.84063292	     -5.16890519	      8.91475020	     27.56576137	     -3.81980802	     -0.49505497	    -44.92800120	      3.05324650	     -8.11647975	      2.01946642	      0.15348000	     -0.20488027	      2.85478817
